<?xml version="1.0" encoding="UTF-8" standalone="no"?>
<!DOCTYPE svg PUBLIC "-//W3C//DTD SVG 20010904//EN"
              "http://www.w3.org/TR/2001/REC-SVG-20010904/DTD/svg10.dtd">

<svg xmlns="http://www.w3.org/2000/svg"
     width="271.357mm" height="138.092mm"
     viewBox="0 0 3205 1631">
  <path id="Selection #1"
        fill="#1e5f94" stroke="black" stroke-width="1"
        d="M 591.00,752.00
           C 591.00,752.00 959.00,752.00 959.00,752.00
             993.23,752.05 1023.64,772.12 1036.55,804.00
             1041.03,815.07 1042.86,828.10 1043.00,840.00
             1043.28,864.43 1043.52,886.25 1030.55,908.00
             1014.82,934.36 986.04,947.95 956.00,948.00
             956.00,948.00 594.00,948.00 594.00,948.00
             594.00,948.00 598.42,969.00 598.42,969.00
             598.42,969.00 607.43,1005.00 607.43,1005.00
             616.59,1037.15 628.50,1068.77 642.78,1099.00
             708.80,1238.74 830.38,1351.02 975.00,1405.58
             1132.26,1464.90 1306.69,1456.98 1458.00,1383.74
             1529.72,1349.03 1594.59,1298.70 1647.15,1239.00
             1681.47,1200.03 1711.02,1156.46 1734.25,1110.00
             1734.25,1110.00 1749.85,1076.00 1749.85,1076.00
             1752.49,1069.84 1756.85,1060.34 1758.00,1054.00
             1758.00,1054.00 1742.91,1072.00 1742.91,1072.00
             1730.58,1085.24 1715.42,1097.71 1699.00,1105.52
             1683.27,1113.00 1663.45,1117.97 1646.00,1118.00
             1605.00,1118.06 1571.64,1101.95 1544.72,1071.00
             1532.09,1056.48 1525.52,1046.73 1518.00,1029.00
             1518.00,1029.00 1517.00,1057.00 1517.00,1057.00
             1517.00,1057.00 1517.00,1117.00 1517.00,1117.00
             1517.00,1117.00 1421.00,1117.00 1421.00,1117.00
             1421.00,1117.00 1421.00,560.00 1421.00,560.00
             1420.98,545.48 1416.97,531.36 1403.00,524.38
             1397.28,521.51 1385.48,520.03 1379.00,520.00
             1379.00,520.00 1359.00,519.00 1359.00,519.00
             1359.00,519.00 1315.00,519.00 1315.00,519.00
             1315.00,519.00 1315.00,427.00 1315.00,427.00
             1346.42,427.00 1403.44,425.43 1432.00,428.85
             1452.70,431.32 1475.56,436.09 1491.96,449.81
             1509.43,464.42 1513.36,484.47 1515.08,506.00
             1515.08,506.00 1516.00,516.00 1516.00,516.00
             1516.00,516.00 1516.00,523.00 1516.00,523.00
             1516.00,523.00 1517.00,538.00 1517.00,538.00
             1517.00,538.00 1517.00,625.00 1517.00,625.00
             1517.00,625.00 1517.00,799.00 1517.00,799.00
             1517.00,799.00 1531.69,772.00 1531.69,772.00
             1542.12,755.64 1558.11,739.82 1574.00,728.72
             1605.98,706.38 1652.52,700.65 1689.00,714.42
             1718.30,725.49 1744.56,748.49 1760.94,775.00
             1786.27,816.01 1793.00,865.69 1793.00,913.00
             1795.01,907.95 1795.66,891.21 1796.09,885.00
             1796.09,885.00 1797.02,877.00 1797.02,877.00
             1797.02,877.00 1797.02,867.00 1797.02,867.00
             1797.02,867.00 1798.00,855.00 1798.00,855.00
             1798.00,855.00 1798.00,821.00 1798.00,821.00
             1798.00,821.00 1797.00,801.00 1797.00,801.00
             1797.00,801.00 1796.09,791.00 1796.09,791.00
             1794.68,770.54 1792.07,750.21 1788.42,730.00
             1767.74,615.31 1713.71,506.37 1633.04,422.00
             1633.04,422.00 1618.00,406.01 1618.00,406.01
             1569.61,358.79 1513.20,318.70 1452.00,289.78
             1397.30,263.94 1338.86,246.36 1279.00,237.73
             1279.00,237.73 1232.00,232.91 1232.00,232.91
             1232.00,232.91 1222.00,231.98 1222.00,231.98
             1222.00,231.98 1206.00,231.98 1206.00,231.98
             1206.00,231.98 1195.00,231.00 1195.00,231.00
             1195.00,231.00 1172.00,232.00 1172.00,232.00
             1172.00,232.00 1122.00,235.17 1122.00,235.17
             1053.54,242.02 982.75,264.35 921.00,294.26
             882.70,312.81 845.24,337.53 812.00,364.00
             758.32,406.75 712.39,458.91 675.95,517.00
             643.92,568.07 620.59,622.87 604.85,681.00
             600.66,696.48 591.13,737.26 591.00,752.00 Z
           M 2534.00,627.42
           C 2515.18,630.15 2485.91,635.25 2472.09,649.09
             2462.14,659.07 2461.15,675.93 2473.04,684.83
             2479.93,689.99 2491.51,691.90 2500.00,692.00
             2525.58,692.30 2557.80,687.50 2576.70,668.57
             2588.13,657.13 2588.98,638.62 2573.00,630.82
             2563.96,626.41 2544.04,626.20 2534.00,627.42 Z
           M 1983.00,1077.00
           C 1984.53,1083.53 1987.71,1089.59 1991.64,1095.00
             2003.60,1111.45 2018.50,1116.27 2038.00,1118.07
             2038.00,1118.07 2048.00,1119.00 2048.00,1119.00
             2060.69,1119.14 2075.89,1117.82 2088.00,1113.97
             2093.11,1112.35 2099.96,1109.51 2103.00,1104.91
             2106.00,1100.36 2106.06,1094.25 2106.00,1089.00
             2105.82,1073.88 2095.70,1075.35 2091.02,1066.00
             2089.81,1063.57 2090.01,1060.65 2090.00,1058.00
             2090.00,1058.00 2090.00,1036.00 2090.00,1036.00
             2090.00,1036.00 2091.00,1021.00 2091.00,1021.00
             2091.00,1021.00 2091.00,825.00 2091.00,825.00
             2091.00,825.00 2090.00,805.00 2090.00,805.00
             2090.22,784.04 2088.61,769.61 2075.52,752.00
             2056.33,726.17 2033.40,716.88 2003.00,710.80
             1995.77,709.35 1980.10,707.09 1973.00,707.00
             1943.47,706.66 1928.16,706.13 1899.00,713.63
             1881.74,718.07 1860.90,728.80 1848.01,741.09
             1833.12,755.29 1825.77,773.57 1826.00,794.00
             1826.13,805.13 1829.76,818.27 1839.04,825.21
             1848.70,832.45 1860.45,833.13 1872.00,833.00
             1884.66,832.85 1902.68,828.90 1914.00,823.24
             1919.04,820.72 1924.07,817.78 1927.30,813.00
             1931.17,807.26 1932.91,793.96 1933.00,787.00
             1933.14,774.69 1933.26,761.33 1944.09,752.94
             1948.77,749.31 1954.20,748.06 1960.00,748.00
             1973.87,747.86 1981.82,754.75 1982.00,769.00
             1982.00,769.00 1982.00,820.00 1982.00,820.00
             1981.99,822.67 1982.35,826.22 1980.40,828.30
             1978.69,830.13 1969.77,833.49 1967.00,834.60
             1967.00,834.60 1936.00,846.33 1936.00,846.33
             1911.02,854.77 1882.04,865.62 1860.00,880.00
             1845.02,889.78 1833.80,899.07 1826.61,916.00
             1814.44,944.71 1814.64,978.33 1815.00,1009.00
             1815.00,1009.00 1815.91,1019.00 1815.91,1019.00
             1817.16,1036.83 1819.90,1055.55 1827.31,1072.00
             1833.75,1086.30 1841.80,1097.37 1855.00,1106.25
             1879.61,1122.80 1917.28,1122.55 1943.00,1108.69
             1956.94,1101.18 1971.82,1088.18 1983.00,1077.00 Z
           M 2257.00,750.00
           C 2257.00,750.00 2257.00,722.00 2257.00,722.00
             2256.98,714.34 2256.70,711.16 2248.00,711.00
             2248.00,711.00 2145.00,711.00 2145.00,711.00
             2141.43,711.01 2137.21,710.62 2134.51,713.43
             2132.07,715.96 2132.04,719.72 2132.00,723.00
             2131.94,727.89 2131.26,737.96 2133.85,741.90
             2138.45,748.87 2148.80,747.24 2149.00,762.00
             2149.00,762.00 2149.00,866.00 2149.00,866.00
             2149.00,866.00 2149.00,1055.00 2149.00,1055.00
             2148.99,1059.38 2149.02,1064.03 2146.86,1068.00
             2143.63,1073.94 2137.45,1076.59 2134.65,1080.18
             2131.68,1083.98 2131.06,1090.32 2131.00,1095.00
             2130.95,1099.34 2130.98,1109.31 2134.43,1112.26
             2136.99,1114.45 2144.62,1114.96 2148.00,1115.00
             2148.00,1115.00 2254.00,1115.00 2254.00,1115.00
             2264.39,1114.98 2274.82,1114.95 2275.00,1102.00
             2275.08,1096.16 2275.82,1084.87 2272.91,1080.04
             2270.30,1075.70 2265.63,1074.37 2262.21,1070.82
             2257.33,1065.74 2257.01,1059.61 2257.00,1053.00
             2257.00,1053.00 2257.00,793.00 2257.00,793.00
             2257.01,790.44 2256.81,787.35 2258.02,785.04
             2259.90,781.46 2266.35,777.61 2270.00,775.89
             2281.69,770.36 2297.21,767.52 2304.91,781.00
             2308.84,787.87 2308.00,802.96 2308.00,811.00
             2308.00,811.00 2308.00,873.00 2308.00,873.00
             2308.00,873.00 2308.00,954.00 2308.00,954.00
             2308.00,954.00 2308.00,1076.00 2308.00,1076.00
             2308.02,1088.32 2310.95,1097.52 2319.08,1106.96
             2321.37,1109.62 2324.64,1113.24 2328.00,1114.42
             2330.00,1115.11 2332.87,1115.00 2335.00,1115.00
             2335.00,1115.00 2413.00,1115.00 2413.00,1115.00
             2416.94,1114.99 2424.49,1114.92 2427.57,1112.27
             2429.75,1110.39 2430.35,1106.73 2430.71,1104.00
             2431.54,1097.76 2431.16,1085.66 2428.43,1080.00
             2423.76,1070.31 2416.18,1072.60 2416.00,1058.00
             2416.00,1058.00 2416.00,971.00 2416.00,971.00
             2416.00,971.00 2416.00,779.00 2416.00,779.00
             2415.99,770.00 2414.38,757.40 2411.19,749.00
             2406.41,736.43 2398.35,724.62 2387.00,717.10
             2364.80,702.41 2327.63,704.75 2304.00,714.87
             2283.40,723.69 2272.37,734.43 2257.00,750.00 Z
           M 2466.00,711.57
           C 2456.25,715.44 2457.99,724.23 2458.00,733.00
             2458.01,737.01 2457.96,743.50 2460.58,746.73
             2463.70,750.56 2469.61,750.06 2473.82,757.09
             2476.31,761.26 2476.94,765.25 2477.00,770.00
             2477.00,770.00 2477.00,873.00 2477.00,873.00
             2477.00,873.00 2477.00,1059.00 2477.00,1059.00
             2477.00,1061.95 2477.21,1065.29 2475.83,1067.99
             2472.63,1074.21 2466.33,1074.32 2462.65,1079.11
             2459.70,1082.95 2459.06,1089.28 2459.00,1094.00
             2458.93,1100.40 2457.75,1111.21 2465.02,1114.11
             2467.57,1115.13 2471.25,1115.00 2474.00,1115.00
             2474.00,1115.00 2586.00,1115.00 2586.00,1115.00
             2599.47,1114.98 2602.83,1113.04 2603.00,1099.00
             2603.08,1092.24 2603.49,1084.81 2599.35,1079.02
             2594.72,1072.52 2589.95,1073.54 2586.74,1068.89
             2584.73,1065.99 2585.01,1062.36 2585.00,1059.00
             2585.00,1059.00 2585.00,986.00 2585.00,986.00
             2585.00,986.00 2585.00,725.00 2585.00,725.00
             2585.00,722.61 2585.13,719.22 2584.26,717.02
             2580.90,708.49 2565.59,711.00 2558.00,711.00
             2558.00,711.00 2498.00,711.00 2498.00,711.00
             2498.00,711.00 2466.00,711.57 2466.00,711.57 Z
           M 2735.00,1000.00
           C 2735.00,1000.00 2751.42,1047.00 2751.42,1047.00
             2753.04,1051.27 2757.79,1063.11 2757.86,1067.00
             2758.04,1075.64 2750.81,1075.46 2746.23,1080.21
             2742.52,1084.05 2742.06,1090.88 2742.00,1096.00
             2741.96,1100.21 2741.86,1107.38 2744.58,1110.77
             2747.76,1114.74 2756.25,1114.98 2761.00,1115.00
             2761.00,1115.00 2869.00,1115.00 2869.00,1115.00
             2880.41,1114.98 2884.85,1114.76 2885.00,1102.00
             2885.06,1096.18 2885.63,1087.09 2882.86,1082.00
             2880.16,1077.02 2874.34,1073.13 2870.68,1068.83
             2867.39,1064.97 2865.77,1060.69 2864.05,1056.00
             2864.05,1056.00 2817.95,930.00 2817.95,930.00
             2817.95,930.00 2804.32,893.00 2804.32,893.00
             2802.88,889.10 2798.95,880.86 2799.75,877.00
             2800.19,874.84 2804.43,867.62 2805.75,865.00
             2805.75,865.00 2820.69,837.00 2820.69,837.00
             2820.69,837.00 2860.79,761.00 2860.79,761.00
             2863.24,756.53 2865.74,753.02 2870.01,750.10
             2873.19,747.94 2878.10,746.29 2879.98,742.90
             2881.65,739.88 2881.01,727.11 2881.00,723.00
             2880.99,714.36 2880.69,711.14 2871.00,711.00
             2871.00,711.00 2812.00,711.00 2812.00,711.00
             2809.75,711.00 2806.14,710.86 2804.11,711.74
             2798.51,714.14 2799.99,723.85 2800.00,729.00
             2800.01,734.01 2799.73,737.85 2803.28,741.90
             2807.27,746.45 2813.24,747.30 2813.59,753.01
             2813.90,757.97 2808.36,767.71 2805.80,772.00
             2805.80,772.00 2788.78,802.00 2788.78,802.00
             2785.78,807.64 2781.60,816.95 2777.00,821.00
             2777.00,821.00 2760.95,775.00 2760.95,775.00
             2759.56,771.20 2755.40,761.42 2755.28,758.00
             2755.00,750.73 2761.75,747.23 2765.28,742.83
             2768.57,738.73 2768.94,735.04 2769.00,730.00
             2769.00,730.00 2769.00,724.00 2769.00,724.00
             2768.98,720.68 2769.04,715.03 2766.44,712.60
             2764.69,710.96 2762.23,711.05 2760.00,711.00
             2760.00,711.00 2738.00,711.00 2738.00,711.00
             2738.00,711.00 2639.00,711.00 2639.00,711.00
             2629.33,711.02 2627.05,711.77 2627.00,722.00
             2626.97,727.71 2626.46,738.04 2629.16,742.96
             2631.31,746.87 2637.48,750.57 2640.90,754.09
             2644.97,758.29 2647.11,763.63 2649.19,769.00
             2649.19,769.00 2695.05,894.00 2695.05,894.00
             2695.05,894.00 2708.69,931.00 2708.69,931.00
             2709.99,934.63 2713.65,942.48 2713.16,946.00
             2712.83,948.37 2709.48,954.55 2708.25,957.00
             2708.25,957.00 2696.25,980.00 2696.25,980.00
             2696.25,980.00 2670.26,1030.00 2670.26,1030.00
             2670.26,1030.00 2653.69,1062.00 2653.69,1062.00
             2650.88,1067.00 2647.56,1070.95 2643.00,1074.47
             2635.47,1080.29 2630.16,1079.60 2630.00,1091.00
             2629.94,1095.61 2629.08,1108.37 2631.74,1111.70
             2634.58,1115.27 2640.87,1114.99 2645.00,1115.00
             2645.00,1115.00 2698.00,1115.00 2698.00,1115.00
             2701.67,1114.99 2708.55,1115.09 2711.26,1112.28
             2713.94,1109.49 2713.01,1096.24 2713.00,1092.00
             2712.99,1087.36 2713.22,1082.96 2709.61,1079.41
             2705.99,1075.86 2698.75,1075.77 2698.24,1069.00
             2697.86,1063.91 2703.38,1053.68 2705.76,1049.00
             2705.76,1049.00 2721.99,1021.00 2721.99,1021.00
             2725.95,1014.26 2730.15,1005.96 2735.00,1000.00 Z
           M 1638.00,741.31
           C 1624.99,745.42 1622.02,755.69 1622.00,768.00
             1622.00,768.00 1622.00,819.00 1622.00,819.00
             1622.00,819.00 1622.00,1062.00 1622.00,1062.00
             1622.02,1076.22 1627.25,1083.50 1642.00,1084.68
             1652.46,1085.51 1662.81,1079.22 1665.83,1069.00
             1667.54,1063.20 1667.00,1054.25 1667.00,1048.00
             1667.00,1048.00 1667.00,1013.00 1667.00,1013.00
             1667.00,1013.00 1667.00,802.00 1667.00,802.00
             1667.00,802.00 1666.20,759.00 1666.20,759.00
             1664.21,748.66 1660.47,742.03 1649.00,741.31
             1645.35,740.79 1641.61,740.94 1638.00,741.31 Z
           M 272.00,820.65
           C 262.54,824.63 262.01,830.81 262.00,840.00
             261.98,851.02 258.79,873.98 271.00,878.99
             273.84,880.16 277.00,880.00 280.00,880.00
             280.00,880.00 397.00,880.00 397.00,880.00
             397.00,880.00 957.00,880.00 957.00,880.00
             968.25,879.98 974.83,876.21 975.00,864.00
             975.00,864.00 975.00,838.00 975.00,838.00
             975.00,835.03 975.12,831.85 974.15,829.00
             972.82,825.13 969.90,822.03 966.00,820.70
             962.35,819.45 942.28,820.00 937.00,820.00
             937.00,820.00 815.00,820.00 815.00,820.00
             815.00,820.00 447.00,820.00 447.00,820.00
             447.00,820.00 330.00,820.00 330.00,820.00
             330.00,820.00 293.00,820.00 293.00,820.00
             287.00,820.00 277.54,819.50 272.00,820.65 Z
           M 1982.00,867.00
           C 1982.00,867.00 1982.00,1023.00 1982.00,1023.00
             1981.97,1042.48 1972.12,1059.84 1950.00,1053.51
             1934.99,1049.21 1933.07,1027.21 1933.00,1014.00
             1933.00,1014.00 1932.00,998.00 1932.00,998.00
             1932.00,998.00 1932.00,965.00 1932.00,965.00
             1932.00,965.00 1933.00,943.00 1933.00,943.00
             1933.00,943.00 1933.91,932.00 1933.91,932.00
             1934.73,920.32 1935.56,903.96 1942.11,894.00
             1950.90,880.61 1967.74,873.05 1982.00,867.00 Z" />
</svg>
